<?xml version="1.0" encoding="UTF-8"?>
<svg xmlns="http://www.w3.org/2000/svg" viewBox="0 0 64 64" width="64" height="64">
    <!-- background circle -->
    <circle cx="32" cy="32" r="32" fill="#355872" />
    <g fill="white">
        <path d="M16 16a12 12 0 0 1 23 0h5a9 9 0 0 1 0 18H16a7 7 0 0 1 0-14z" />
    </g>
    <g fill="white">
        <circle cx="32" cy="38" r="3" />
        <!-- children -->
        <circle cx="24" cy="48" r="3" />
        <circle cx="40" cy="48" r="3" />
        <!-- grandchildren -->
        <circle cx="20" cy="56" r="3" />
        <circle cx="28" cy="56" r="3" />
        <circle cx="36" cy="56" r="3" />
        <circle cx="44" cy="56" r="3" />

        <!-- connections -->
        <line x1="32" y1="38" x2="24" y2="48" stroke="white" stroke-width="2" />
        <line x1="32" y1="38" x2="40" y2="48" stroke="white" stroke-width="2" />
        <line x1="24" y1="48" x2="20" y2="56" stroke="white" stroke-width="2" />
        <line x1="24" y1="48" x2="28" y2="56" stroke="white" stroke-width="2" />
        <line x1="40" y1="48" x2="36" y2="56" stroke="white" stroke-width="2" />
        <line x1="40" y1="48" x2="44" y2="56" stroke="white" stroke-width="2" />
    </g>
</svg>