<svg viewBox="0 0 64 64" width="64" height="64" fill="none" xmlns="http://www.w3.org/2000/svg">
    <style> g { fill: #000; stroke: #000; } @media (prefers-color-scheme: dark) { g { fill: #fff;
        stroke: #fff; <!--
        set icon color for dark mode --> } } </style>
    <!-- network graph lines -->
    <g stroke-width="2" stroke-linecap="round" stroke-linejoin="round">
        <!-- central trunk -->
        <line x1="32" y1="35" x2="32" y2="43" />
        <!-- level‑1 routing -->
        <line x1="32" y1="43" x2="20" y2="51" />
        <line x1="32" y1="43" x2="44" y2="51" />
        <!-- level‑2 routing -->
        <line x1="20" y1="51" x2="14" y2="59" />
        <line x1="20" y1="51" x2="26" y2="59" />
        <line x1="44" y1="51" x2="38" y2="59" />
        <line x1="44" y1="51" x2="50" y2="59" />
    </g>

    <!-- cloud object -->
    <g>
        <rect x="16" y="21" width="32" height="16" rx="8" />
        <circle cx="26" cy="19" r="8" />
        <circle cx="38" cy="18" r="10" />
    </g>

    <!-- network nodes, white fill for rings -->
    <g stroke-width="2">
        <circle cx="32" cy="43" r="3" />

        <circle cx="20" cy="51" r="3" />
        <circle cx="44" cy="51" r="3" />

        <circle cx="14" cy="59" r="3" />
        <circle cx="26" cy="59" r="3" />
        <circle cx="38" cy="59" r="3" />
        <circle cx="50" cy="59" r="3" />
    </g>
</svg>